<?xml version="1.0" encoding="UTF-8" standalone="no"?>
<svg xmlns="http://www.w3.org/2000/svg"
     width="1600"
     height="1600"
     viewBox="0 0 1600 1600">

	<rect width="1600" height="1600" fill="#8C52FF"/>

	<g transform="translate(0,1600) scale(0.1,-0.1)"
       fill="#FFFFFF"
       stroke="none">

		<path d="M11415 10719 c36 -29 33 -41 -70 -239 -129 -245 -247 -481 -405 -804
-77 -160 -152 -305 -166 -323 -14 -18 -43 -42 -64 -53 -38 -19 -60 -20 -626
-20 -502 0 -595 -2 -648 -16 -126 -32 -224 -114 -284 -236 -18 -35 -104 -301
-193 -593 -88 -291 -167 -539 -174 -551 -14 -22 -606 -523 -950 -805 -112 -92
-218 -172 -236 -178 -76 -26 -170 -7 -223 46 -65 65 -76 129 -42 238 13 44 34
118 46 165 12 47 53 207 91 355 130 499 359 1421 359 1444 0 39 -68 97 -135
116 -54 16 -133 17 -1070 10 l-1012 -8 -22 22 c-11 11 -21 30 -21 42 0 11 85
187 189 392 104 205 249 496 321 647 73 151 144 287 158 302 14 15 44 37 66
48 41 20 52 20 2562 20 l2521 0 28 -21z"/>

		<path d="M9510 7720 c48 -24 77 -65 86 -117 10 -62 -48 -178 -231 -468 -87
-137 -193 -306 -236 -375 -44 -69 -157 -244 -252 -390 -94 -146 -271 -419
-391 -605 -446 -692 -404 -631 -471 -675 -42 -27 -83 -44 -135 -55 -84 -18
-137 -14 -213 16 -27 11 -264 170 -527 354 -262 184 -503 350 -534 369 -38 23
-81 38 -126 46 -108 18 -153 1 -297 -116 -542 -438 -808 -647 -864 -678 -164
-90 -357 -126 -545 -102 -114 15 -137 25 -164 69 -38 62 -24 111 72 244 34 49
349 518 700 1043 441 661 649 963 674 982 43 33 112 45 165 29 25 -8 125 -83
297 -224 811 -664 821 -672 879 -695 81 -33 202 -29 286 11 93 43 466 325 801
607 115 96 223 186 240 200 17 14 164 136 327 271 163 136 309 254 325 263 40
21 87 20 134 -4z"/>

	</g>
</svg>